<?xml version="1.0" encoding="iso-8859-1"?>
<!-- Generator: Adobe Illustrator 18.0.0, SVG Export Plug-In . SVG Version: 6.00 Build 0)  -->
<!DOCTYPE svg PUBLIC "-//W3C//DTD SVG 1.1//EN" "http://www.w3.org/Graphics/SVG/1.1/DTD/svg11.dtd">
<svg version="1.1" id="Capa_1" xmlns="http://www.w3.org/2000/svg" xmlns:xlink="http://www.w3.org/1999/xlink" x="0px" y="0px"
	 viewBox="0 0 52 52" style="enable-background:new 0 0 52 52;" xml:space="preserve">
<g>
	<path style="fill:#E6E6E6;" d="M44.5,20.232h-6v4h4c1.1,0,2,0.9,2,2v10c0,1.1-0.9,2-2,2h-4v4h6c2.2,0,4-1.8,4-4v-14
		C48.5,22.032,46.7,20.232,44.5,20.232z"/>
	<path style="fill:#E6E6E6;" d="M32.5,4c-1.383,0-2.653,0.472-3.667,1.258C27.837,3.325,25.825,2,23.5,2
		c-0.849,0-1.655,0.178-2.387,0.496C19.924,0.979,18.078,0,16,0c-3.125,0-5.732,2.205-6.356,5.144C9.275,5.057,8.895,5,8.5,5
		c-2.761,0-5,2.239-5,5v8c0,1.1,0.9,2,2,2h1c1.1,0,2-0.9,2-2v-1.596C9.106,16.775,9.809,17,10.568,17h1.967
		c1.275,0,2.402-0.615,3.136-1.551C16.76,16.988,18.55,18,20.568,18c3.3,0,6-2.7,6-6h11.583c0.222-0.626,0.349-1.298,0.349-2
		C38.5,6.686,35.814,4,32.5,4z"/>
	<path style="fill:#F4C44E;" d="M26.568,12c0,3.3-2.7,6-6,6c-2.018,0-3.808-1.012-4.897-2.551C14.937,16.385,13.81,17,12.535,17
		h-1.967c-0.758,0-1.462-0.225-2.068-0.596V47c0,2.75,2.25,5,5,5h20c2.75,0,5-2.25,5-5V12H26.568z"/>
	<path style="fill:#F9DA49;" d="M14.5,25c0-1.65-1.35-3-3-3s-3,1.35-3,3v21h6V25z"/>
	<path style="fill:#EEAF4B;" d="M20.5,25c0-1.65-1.35-3-3-3s-3,1.35-3,3v21h6V25z"/>
	<path style="fill:#F9DA49;" d="M26.5,25c0-1.65-1.35-3-3-3s-3,1.35-3,3v21h6V25z"/>
	<path style="fill:#EEAF4B;" d="M32.5,25c0-1.65-1.35-3-3-3s-3,1.35-3,3v21h6V25z"/>
	<path style="fill:#F9DA49;" d="M38.5,25c0-1.65-1.35-3-3-3s-3,1.35-3,3v21h6V25z"/>
</g>
<g>
</g>
<g>
</g>
<g>
</g>
<g>
</g>
<g>
</g>
<g>
</g>
<g>
</g>
<g>
</g>
<g>
</g>
<g>
</g>
<g>
</g>
<g>
</g>
<g>
</g>
<g>
</g>
<g>
</g>
</svg>
